<?xml version="1.0" encoding="utf-8"?>
<!-- Generator: Adobe Illustrator 26.0.0, SVG Export Plug-In . SVG Version: 6.00 Build 0)  -->
<svg version="1.1" id="Capa_1" xmlns="http://www.w3.org/2000/svg" xmlns:xlink="http://www.w3.org/1999/xlink" x="0px" y="0px"
	 viewBox="0 0 10 5" style="enable-background:new 0 0 10 5;" xml:space="preserve">
<g>
	<path d="M8.1,0.6C7.8,0.7,7.6,0.8,7.4,0.8c0.3-0.2,0.5-0.4,0.6-0.7C7.7,0.2,7.4,0.3,7.1,0.4C6.9,0.2,6.6,0,6.2,0
		C5.5,0,4.9,0.6,4.9,1.3c0,0.1,0,0.2,0,0.3C3.9,1.5,3,1,2.3,0.2C2.2,0.4,2.2,0.6,2.2,0.9c0,0.4,0.2,0.8,0.6,1
		c-0.2,0-0.4-0.1-0.6-0.2c0,0,0,0,0,0c0,0.6,0.4,1.1,1,1.2c-0.1,0-0.2,0-0.3,0c-0.1,0-0.2,0-0.2,0c0.2,0.5,0.6,0.9,1.2,0.9
		c-0.4,0.3-1,0.5-1.6,0.5c-0.1,0-0.2,0-0.3,0C2.5,4.8,3.2,5,3.9,5c2.3,0,3.6-1.9,3.6-3.6c0,0,0-0.1,0-0.2C7.7,1.1,7.9,0.9,8.1,0.6"
		/>
</g>
</svg>
