<?xml version="1.0" encoding="utf-8"?>
<!-- Generator: Adobe Illustrator 26.0.0, SVG Export Plug-In . SVG Version: 6.00 Build 0)  -->
<svg version="1.1" id="Capa_1" xmlns="http://www.w3.org/2000/svg" xmlns:xlink="http://www.w3.org/1999/xlink" x="0px" y="0px"
	 viewBox="0 0 10 5" style="enable-background:new 0 0 10 5;" xml:space="preserve">
<style type="text/css">
	.st0{fill-rule:evenodd;clip-rule:evenodd;}
</style>
<g>
	<g>
		<path class="st0" d="M8.6,2.2c0-0.8-0.1-1.6-0.4-1.9C8.1,0.2,7.9,0.1,7.5,0.1C6.8,0,6,0,5.4,0C5.1,0,4.9,0,4.6,0
			C4,0,3.2,0,2.5,0.1C2,0.1,1.9,0.2,1.8,0.3c-0.3,0.3-0.4,1.1-0.4,2c0,0.2,0,0.3,0,0.5c0,0.8,0.1,1.7,0.4,2C1.9,4.9,2.1,5,2.5,5
			C3.2,5,4,5,4.6,5c0.3,0,0.5,0,0.8,0C6,5,6.8,5,7.5,4.9c0.5,0,0.6-0.1,0.7-0.2c0.3-0.3,0.4-1.1,0.4-1.9C8.6,2.6,8.6,2.4,8.6,2.2z
			 M4.3,3.6V1.5l1.8,1L4.3,3.6z"/>
	</g>
</g>
</svg>
